<svg width="97" height="35" viewBox="0 0 97 35" fill="none" xmlns="http://www.w3.org/2000/svg">
<g clip-path="url(#clip0)">
<path d="M16.9034 33.4091H1.98864C1.45005 33.4091 0.983961 33.2123 0.590376 32.8187C0.196792 32.4252 0 31.9591 0 31.4205V3.57958C0 3.02027 0.191613 2.54901 0.57484 2.16578C0.958067 1.78256 1.42933 1.59094 1.98864 1.59094H21.875C22.4343 1.59094 22.9056 1.78256 23.2888 2.16578C23.672 2.54901 23.8636 3.02027 23.8636 3.57958V26.4489C23.8636 28.3754 23.1852 30.017 21.8284 31.3739C20.4716 32.7307 18.8299 33.4091 16.9034 33.4091ZM15.9246 29.4319C16.4736 29.4319 16.9397 29.2351 17.3229 28.8415C17.7061 28.4479 17.8977 27.9766 17.8977 27.4277C17.8977 26.8787 17.7061 26.4126 17.3229 26.0294C16.9397 25.6462 16.4736 25.4546 15.9246 25.4546C15.3757 25.4546 14.9044 25.6462 14.5108 26.0294C14.1172 26.4126 13.9205 26.8787 13.9205 27.4277C13.9205 27.9766 14.1172 28.4479 14.5108 28.8415C14.9044 29.2351 15.3757 29.4319 15.9246 29.4319ZM1.98864 23.9631V24.9574C1.98864 25.1024 2.03524 25.2215 2.12846 25.3148C2.22168 25.408 2.34079 25.4546 2.4858 25.4546H3.97727V26.9461C3.97727 27.0911 4.02388 27.2102 4.1171 27.3034C4.21032 27.3966 4.32943 27.4432 4.47443 27.4432H5.46875C5.61375 27.4432 5.73287 27.3966 5.82608 27.3034C5.9193 27.2102 5.96591 27.0911 5.96591 26.9461V25.4546H7.45739C7.60239 25.4546 7.7215 25.408 7.81472 25.3148C7.90794 25.2215 7.95455 25.1024 7.95455 24.9574V23.9631C7.95455 23.8181 7.90794 23.699 7.81472 23.6058C7.7215 23.5126 7.60239 23.4659 7.45739 23.4659H5.96591V21.9745C5.96591 21.8295 5.9193 21.7104 5.82608 21.6171C5.73287 21.5239 5.61375 21.4773 5.46875 21.4773H4.47443C4.32943 21.4773 4.21032 21.5239 4.1171 21.6171C4.02388 21.7104 3.97727 21.8295 3.97727 21.9745V23.4659H2.4858C2.34079 23.4659 2.22168 23.5126 2.12846 23.6058C2.03524 23.699 1.98864 23.8181 1.98864 23.9631ZM19.8864 6.56253C19.8864 6.29324 19.788 6.0602 19.5912 5.8634C19.3944 5.66661 19.1613 5.56822 18.892 5.56822H4.97159C4.7023 5.56822 4.46925 5.66661 4.27246 5.8634C4.07567 6.0602 3.97727 6.29324 3.97727 6.56253V16.5057C3.97727 16.775 4.07567 17.0081 4.27246 17.2048C4.46925 17.4016 4.7023 17.5 4.97159 17.5H18.892C19.1613 17.5 19.3944 17.4016 19.5912 17.2048C19.788 17.0081 19.8864 16.775 19.8864 16.5057V6.56253ZM19.9019 21.4773C19.353 21.4773 18.8817 21.6689 18.4881 22.0521C18.0945 22.4354 17.8977 22.9015 17.8977 23.4504C17.8977 23.9994 18.0945 24.4706 18.4881 24.8642C18.8817 25.2578 19.353 25.4546 19.9019 25.4546C20.4508 25.4546 20.9169 25.2578 21.3002 24.8642C21.6834 24.4706 21.875 23.9994 21.875 23.4504C21.875 22.9015 21.6834 22.4354 21.3002 22.0521C20.9169 21.6689 20.4508 21.4773 19.9019 21.4773Z" fill="black"/>
</g>
<path d="M32.4306 8.875C32.4306 7.67333 32.6989 6.6 33.2356 5.655C33.7839 4.69833 34.5306 3.9575 35.4756 3.4325C36.4323 2.89583 37.4939 2.6275 38.6606 2.6275C40.0373 2.6275 41.2331 2.96583 42.2481 3.6425C43.2631 4.3075 43.9631 5.24667 44.3481 6.46H41.5306C41.2506 5.94667 40.8656 5.55583 40.3756 5.2875C39.8856 5.01917 39.3139 4.885 38.6606 4.885C37.9373 4.885 37.2956 5.04833 36.7356 5.375C36.1756 5.70167 35.7381 6.16833 35.4231 6.775C35.1081 7.38167 34.9506 8.08167 34.9506 8.875C34.9506 9.69167 35.1081 10.4033 35.4231 11.01C35.7498 11.6167 36.1989 12.0833 36.7706 12.41C37.3423 12.7367 38.0073 12.9 38.7656 12.9C39.6989 12.9 40.4631 12.6492 41.0581 12.1475C41.6648 11.6458 42.0556 10.9517 42.2306 10.065H38.0306V8.21H44.6456V10.345C44.4823 11.1967 44.1323 11.9842 43.5956 12.7075C43.0589 13.4308 42.3648 14.0142 41.5131 14.4575C40.6731 14.8892 39.7281 15.105 38.6781 15.105C37.4998 15.105 36.4323 14.8425 35.4756 14.3175C34.5306 13.7808 33.7839 13.04 33.2356 12.095C32.6989 11.15 32.4306 10.0767 32.4306 8.875ZM45.8282 10.1175C45.8282 9.1375 46.0207 8.26833 46.4057 7.51C46.8024 6.75167 47.3332 6.16833 47.9982 5.76C48.6749 5.35167 49.4274 5.1475 50.2557 5.1475C50.9791 5.1475 51.6091 5.29333 52.1457 5.585C52.6941 5.87667 53.1316 6.24417 53.4582 6.6875V5.305H55.9257V15H53.4582V13.5825C53.1432 14.0375 52.7057 14.4167 52.1457 14.72C51.5974 15.0117 50.9616 15.1575 50.2382 15.1575C49.4216 15.1575 48.6749 14.9475 47.9982 14.5275C47.3332 14.1075 46.8024 13.5183 46.4057 12.76C46.0207 11.99 45.8282 11.1092 45.8282 10.1175ZM53.4582 10.1525C53.4582 9.5575 53.3416 9.05 53.1082 8.63C52.8749 8.19833 52.5599 7.87167 52.1632 7.65C51.7666 7.41667 51.3407 7.3 50.8857 7.3C50.4307 7.3 50.0107 7.41083 49.6257 7.6325C49.2407 7.85417 48.9257 8.18083 48.6807 8.6125C48.4474 9.0325 48.3307 9.53417 48.3307 10.1175C48.3307 10.7008 48.4474 11.2142 48.6807 11.6575C48.9257 12.0892 49.2407 12.4217 49.6257 12.655C50.0224 12.8883 50.4424 13.005 50.8857 13.005C51.3407 13.005 51.7666 12.8942 52.1632 12.6725C52.5599 12.4392 52.8749 12.1125 53.1082 11.6925C53.3416 11.2608 53.4582 10.7475 53.4582 10.1525ZM70.3586 5.165C71.5486 5.165 72.5053 5.5325 73.2286 6.2675C73.9636 6.99083 74.3311 8.00583 74.3311 9.3125V15H71.8811V9.645C71.8811 8.88667 71.6886 8.30917 71.3036 7.9125C70.9186 7.50417 70.3936 7.3 69.7286 7.3C69.0636 7.3 68.5328 7.50417 68.1361 7.9125C67.7511 8.30917 67.5586 8.88667 67.5586 9.645V15H65.1086V9.645C65.1086 8.88667 64.9161 8.30917 64.5311 7.9125C64.1461 7.50417 63.6211 7.3 62.9561 7.3C62.2794 7.3 61.7428 7.50417 61.3461 7.9125C60.9611 8.30917 60.7686 8.88667 60.7686 9.645V15H58.3186V5.305H60.7686V6.4775C61.0836 6.06917 61.4861 5.74833 61.9761 5.515C62.4778 5.28167 63.0261 5.165 63.6211 5.165C64.3794 5.165 65.0561 5.32833 65.6511 5.655C66.2461 5.97 66.7069 6.425 67.0336 7.02C67.3486 6.46 67.8036 6.01083 68.3986 5.6725C69.0053 5.33417 69.6586 5.165 70.3586 5.165ZM85.6685 9.925C85.6685 10.2517 85.6452 10.555 85.5985 10.835H78.511C78.5577 11.5467 78.7968 12.1067 79.2285 12.515C79.6602 12.9233 80.1968 13.1275 80.8385 13.1275C81.7485 13.1275 82.396 12.7367 82.781 11.955H85.4235C85.1435 12.8883 84.6068 13.6583 83.8135 14.265C83.0202 14.86 82.046 15.1575 80.891 15.1575C79.9577 15.1575 79.1177 14.9533 78.371 14.545C77.636 14.125 77.0585 13.5358 76.6385 12.7775C76.2302 12.0192 76.026 11.1442 76.026 10.1525C76.026 9.14917 76.2302 8.26833 76.6385 7.51C77.0468 6.75167 77.6185 6.16833 78.3535 5.76C79.0885 5.35167 79.9343 5.1475 80.891 5.1475C81.8127 5.1475 82.6352 5.34583 83.3585 5.7425C84.0935 6.13917 84.6593 6.69917 85.056 7.4225C85.4643 8.14583 85.6685 8.98 85.6685 9.925ZM83.131 9.3475C83.1193 8.67083 82.8918 8.14 82.4485 7.755C82.0168 7.35833 81.4743 7.16 80.821 7.16C80.2027 7.16 79.6835 7.35833 79.2635 7.755C78.8435 8.14 78.5927 8.67083 78.511 9.3475H83.131ZM37.2431 32.1225C36.3914 32.1225 35.6214 31.9767 34.9331 31.685C34.2564 31.3933 33.7198 30.9733 33.3231 30.425C32.9264 29.8767 32.7223 29.2292 32.7106 28.4825H35.3356C35.3706 28.9958 35.5456 29.4042 35.8606 29.7075C36.1873 30.0108 36.6306 30.1625 37.1906 30.1625C37.7623 30.1625 38.2114 30.0225 38.5381 29.7425C38.8648 29.4625 39.0281 29.0892 39.0281 28.6225C39.0281 28.2608 38.9173 27.9633 38.6956 27.73C38.4739 27.4967 38.1939 27.3158 37.8556 27.1875C37.5289 27.0475 37.0739 26.8958 36.4906 26.7325C35.6973 26.4992 35.0498 26.2717 34.5481 26.05C34.0581 25.8167 33.6323 25.4725 33.2706 25.0175C32.9206 24.5508 32.7456 23.9325 32.7456 23.1625C32.7456 22.4392 32.9264 21.8092 33.2881 21.2725C33.6498 20.7358 34.1573 20.3275 34.8106 20.0475C35.4639 19.7558 36.2106 19.61 37.0506 19.61C38.3106 19.61 39.3314 19.9192 40.1131 20.5375C40.9064 21.1442 41.3439 21.9958 41.4256 23.0925H38.7306C38.7073 22.6375 38.5264 22.2758 38.1881 22.0075C37.8614 21.7275 37.4239 21.5875 36.8756 21.5875C36.3973 21.5875 36.0123 21.7158 35.7206 21.9725C35.4406 22.2175 35.3006 22.585 35.3006 23.075C35.3006 23.4017 35.4056 23.6758 35.6156 23.8975C35.8373 24.1075 36.1056 24.2825 36.4206 24.4225C36.7473 24.5508 37.2023 24.7025 37.7856 24.8775C38.5789 25.1108 39.2264 25.3442 39.7281 25.5775C40.2298 25.8108 40.6614 26.1608 41.0231 26.6275C41.3848 27.0942 41.5656 27.7067 41.5656 28.465C41.5656 29.1183 41.3964 29.725 41.0581 30.285C40.7198 30.845 40.2239 31.2942 39.5706 31.6325C38.9173 31.9592 38.1414 32.1225 37.2431 32.1225ZM46.5422 24.3175V29.0075C46.5422 29.3342 46.618 29.5733 46.7697 29.725C46.933 29.865 47.2013 29.935 47.5747 29.935H48.7122V32H47.1722C45.1072 32 44.0747 30.9967 44.0747 28.99V24.3175H42.9197V22.305H44.0747V19.9075H46.5422V22.305H48.7122V24.3175H46.5422ZM49.8443 27.1175C49.8443 26.1375 50.0368 25.2683 50.4218 24.51C50.8185 23.7517 51.3493 23.1683 52.0143 22.76C52.691 22.3517 53.4435 22.1475 54.2718 22.1475C54.9952 22.1475 55.6252 22.2933 56.1618 22.585C56.7102 22.8767 57.1477 23.2442 57.4743 23.6875V22.305H59.9418V32H57.4743V30.5825C57.1593 31.0375 56.7218 31.4167 56.1618 31.72C55.6135 32.0117 54.9777 32.1575 54.2543 32.1575C53.4377 32.1575 52.691 31.9475 52.0143 31.5275C51.3493 31.1075 50.8185 30.5183 50.4218 29.76C50.0368 28.99 49.8443 28.1092 49.8443 27.1175ZM57.4743 27.1525C57.4743 26.5575 57.3577 26.05 57.1243 25.63C56.891 25.1983 56.576 24.8717 56.1793 24.65C55.7827 24.4167 55.3568 24.3 54.9018 24.3C54.4468 24.3 54.0268 24.4108 53.6418 24.6325C53.2568 24.8542 52.9418 25.1808 52.6968 25.6125C52.4635 26.0325 52.3468 26.5342 52.3468 27.1175C52.3468 27.7008 52.4635 28.2142 52.6968 28.6575C52.9418 29.0892 53.2568 29.4217 53.6418 29.655C54.0385 29.8883 54.4585 30.005 54.9018 30.005C55.3568 30.005 55.7827 29.8942 56.1793 29.6725C56.576 29.4392 56.891 29.1125 57.1243 28.6925C57.3577 28.2608 57.4743 27.7475 57.4743 27.1525ZM65.1872 24.3175V29.0075C65.1872 29.3342 65.263 29.5733 65.4147 29.725C65.578 29.865 65.8464 29.935 66.2197 29.935H67.3572V32H65.8172C63.7522 32 62.7197 30.9967 62.7197 28.99V24.3175H61.5647V22.305H62.7197V19.9075H65.1872V22.305H67.3572V24.3175H65.1872ZM70.3619 21.15C69.9302 21.15 69.5685 21.0158 69.2769 20.7475C68.9969 20.4675 68.8569 20.1233 68.8569 19.715C68.8569 19.3067 68.9969 18.9683 69.2769 18.7C69.5685 18.42 69.9302 18.28 70.3619 18.28C70.7935 18.28 71.1494 18.42 71.4294 18.7C71.721 18.9683 71.8669 19.3067 71.8669 19.715C71.8669 20.1233 71.721 20.4675 71.4294 20.7475C71.1494 21.0158 70.7935 21.15 70.3619 21.15ZM71.5694 22.305V32H69.1194V22.305H71.5694ZM78.295 32.1575C77.3616 32.1575 76.5216 31.9533 75.775 31.545C75.0283 31.125 74.4391 30.5358 74.0075 29.7775C73.5875 29.0192 73.3775 28.1442 73.3775 27.1525C73.3775 26.1608 73.5933 25.2858 74.025 24.5275C74.4683 23.7692 75.0691 23.1858 75.8275 22.7775C76.5858 22.3575 77.4316 22.1475 78.365 22.1475C79.2983 22.1475 80.1441 22.3575 80.9025 22.7775C81.6608 23.1858 82.2558 23.7692 82.6875 24.5275C83.1308 25.2858 83.3525 26.1608 83.3525 27.1525C83.3525 28.1442 83.125 29.0192 82.67 29.7775C82.2266 30.5358 81.62 31.125 80.85 31.545C80.0916 31.9533 79.24 32.1575 78.295 32.1575ZM78.295 30.0575C78.7383 30.0575 79.1525 29.9467 79.5375 29.725C79.9341 29.5033 80.2491 29.1767 80.4825 28.745C80.7158 28.3017 80.8325 27.7708 80.8325 27.1525C80.8325 26.5342 80.7158 26.0092 80.4825 25.5775C80.2491 25.1342 79.94 24.8017 79.555 24.58C79.1816 24.3583 78.7733 24.2475 78.33 24.2475C77.6416 24.2475 77.0583 24.5042 76.58 25.0175C76.1016 25.5192 75.8625 26.2308 75.8625 27.1525C75.8625 28.0742 76.0958 28.7917 76.5625 29.305C77.0291 29.8067 77.6066 30.0575 78.295 30.0575ZM90.5221 22.165C91.6771 22.165 92.6105 22.5325 93.3221 23.2675C94.0338 23.9908 94.3896 25.0058 94.3896 26.3125V32H91.9396V26.645C91.9396 25.875 91.7471 25.2858 91.3621 24.8775C90.9771 24.4575 90.4521 24.2475 89.7871 24.2475C89.1105 24.2475 88.5738 24.4575 88.1771 24.8775C87.7921 25.2858 87.5996 25.875 87.5996 26.645V32H85.1496V22.305H87.5996V23.5125C87.9263 23.0925 88.3405 22.7658 88.8421 22.5325C89.3555 22.2875 89.9155 22.165 90.5221 22.165Z" fill="black"/>
<defs>
<clipPath id="clip0">
<rect width="23.8636" height="31.8182" fill="white" transform="translate(0 1.59094)"/>
</clipPath>
</defs>
</svg>
