<svg width="23" height="31" viewBox="0 0 23 31" fill="none" xmlns="http://www.w3.org/2000/svg">
<path d="M16.2917 31H1.91667C1.39757 31 0.948351 30.8083 0.56901 30.4248C0.18967 30.0413 0 29.5872 0 29.0625V1.9375C0 1.39258 0.184679 0.933431 0.554036 0.560059C0.923394 0.186686 1.3776 0 1.91667 0H21.0833C21.6224 0 22.0766 0.186686 22.446 0.560059C22.8153 0.933431 23 1.39258 23 1.9375V24.2188C23 26.0957 22.3461 27.6952 21.0384 29.0171C19.7307 30.339 18.1484 31 16.2917 31ZM15.3483 27.125C15.8774 27.125 16.3266 26.9333 16.696 26.5498C17.0653 26.1663 17.25 25.7072 17.25 25.1724C17.25 24.6375 17.0653 24.1834 16.696 23.8101C16.3266 23.4367 15.8774 23.25 15.3483 23.25C14.8192 23.25 14.365 23.4367 13.9857 23.8101C13.6063 24.1834 13.4167 24.6375 13.4167 25.1724C13.4167 25.7072 13.6063 26.1663 13.9857 26.5498C14.365 26.9333 14.8192 27.125 15.3483 27.125ZM1.91667 21.7969V22.7656C1.91667 22.9069 1.96159 23.0229 2.05143 23.1138C2.14128 23.2046 2.25608 23.25 2.39583 23.25H3.83333V24.7031C3.83333 24.8444 3.87826 24.9604 3.9681 25.0513C4.05794 25.1421 4.17274 25.1875 4.3125 25.1875H5.27083C5.41059 25.1875 5.52539 25.1421 5.61523 25.0513C5.70508 24.9604 5.75 24.8444 5.75 24.7031V23.25H7.1875C7.32726 23.25 7.44206 23.2046 7.5319 23.1138C7.62174 23.0229 7.66667 22.9069 7.66667 22.7656V21.7969C7.66667 21.6556 7.62174 21.5396 7.5319 21.4487C7.44206 21.3579 7.32726 21.3125 7.1875 21.3125H5.75V19.8594C5.75 19.7181 5.70508 19.6021 5.61523 19.5112C5.52539 19.4204 5.41059 19.375 5.27083 19.375H4.3125C4.17274 19.375 4.05794 19.4204 3.9681 19.5112C3.87826 19.6021 3.83333 19.7181 3.83333 19.8594V21.3125H2.39583C2.25608 21.3125 2.14128 21.3579 2.05143 21.4487C1.96159 21.5396 1.91667 21.6556 1.91667 21.7969ZM19.1667 4.84375C19.1667 4.58138 19.0718 4.35433 18.8822 4.1626C18.6925 3.97087 18.4679 3.875 18.2083 3.875H4.79167C4.53212 3.875 4.30751 3.97087 4.11784 4.1626C3.92817 4.35433 3.83333 4.58138 3.83333 4.84375V14.5312C3.83333 14.7936 3.92817 15.0207 4.11784 15.2124C4.30751 15.4041 4.53212 15.5 4.79167 15.5H18.2083C18.4679 15.5 18.6925 15.4041 18.8822 15.2124C19.0718 15.0207 19.1667 14.7936 19.1667 14.5312V4.84375ZM19.1816 19.375C18.6526 19.375 18.1984 19.5617 17.819 19.9351C17.4397 20.3084 17.25 20.7625 17.25 21.2974C17.25 21.8322 17.4397 22.2913 17.819 22.6748C18.1984 23.0583 18.6526 23.25 19.1816 23.25C19.7107 23.25 20.1599 23.0583 20.5293 22.6748C20.8987 22.2913 21.0833 21.8322 21.0833 21.2974C21.0833 20.7625 20.8987 20.3084 20.5293 19.9351C20.1599 19.5617 19.7107 19.375 19.1816 19.375Z" fill="#262626"/>
</svg>
